<svg
  xmlns="http://www.w3.org/2000/svg"
  width="500"
  height="500"
  viewBox="0 0 500 500"
  version="1.1"
>
  <path
    d="M 318 157.387 C 318 157.599, 319.326 157.968, 320.947 158.206 C 322.568 158.443, 323.667 158.270, 323.388 157.819 C 322.893 157.017, 318 156.625, 318 157.387 M 170 178.911 C 171.375 180.035, 172.950 180.959, 173.500 180.962 C 174.570 180.970, 172.762 179.585, 169.500 177.899 C 168.172 177.213, 168.339 177.552, 170 178.911 M 363.419 233 C 368.660 239.106, 369.712 240.065, 367.260 236.500 C 366.124 234.850, 363.927 232.375, 362.376 231 C 360.503 229.340, 360.853 230.011, 363.419 233 M 207.503 231.616 C 194.376 234.789, 181.773 245.185, 176.042 257.567 C 171.813 266.704, 170.692 273.328, 171.231 286 C 171.606 294.835, 172.179 297.743, 174.844 304.338 C 176.585 308.649, 179.691 314.724, 181.745 317.838 C 185.846 324.056, 212.882 351.449, 223.072 359.711 C 226.608 362.578, 233.325 368.024, 238 371.814 C 247.407 379.440, 262.349 390.095, 267.037 392.519 C 270.013 394.058, 270.176 394.009, 276.793 389.569 C 280.495 387.086, 288.428 381.104, 294.421 376.277 C 300.415 371.450, 306.858 366.296, 308.738 364.825 C 310.618 363.353, 314.693 359.753, 317.795 356.825 C 320.896 353.896, 326.449 348.800, 330.135 345.500 C 341.169 335.621, 355.726 318.333, 359.580 310.531 C 364.651 300.265, 365.976 294.145, 365.976 281 C 365.976 263.873, 362.883 254.899, 353.623 245.166 C 343.741 234.780, 332.830 230, 319.001 230 C 301.658 230, 287.719 237.958, 274.777 255.250 C 271.998 258.962, 269.399 262, 269 262 C 268.601 262, 265.950 258.874, 263.109 255.052 C 256.561 246.246, 249.881 240.403, 241.498 236.147 C 229.719 230.168, 219.261 228.774, 207.503 231.616 M 85 242.220 C 85 242.416, 87.138 244.333, 89.750 246.480 C 92.362 248.627, 93.600 249.349, 92.500 248.084 C 90.556 245.848, 85 241.504, 85 242.220 M 190 349.500 C 193.543 353.075, 196.667 356, 196.942 356 C 197.217 356, 194.543 353.075, 191 349.500 C 187.457 345.925, 184.333 343, 184.058 343 C 183.783 343, 186.457 345.925, 190 349.500 M 345.971 349.750 L 339.500 356.500 346.250 350.029 C 349.962 346.470, 353 343.432, 353 343.279 C 353 342.543, 351.982 343.480, 345.971 349.750 M 323.453 370.250 L 319.500 374.500 323.750 370.547 C 327.702 366.871, 328.460 366, 327.703 366 C 327.540 366, 325.627 367.913, 323.453 370.250"
    stroke="none"
    fill="#e54b42"
    fill-rule="evenodd"
  />
  <path
    d="M 374.500 99.698 C 370.101 100.282, 359.194 103.931, 353.848 106.606 C 349.307 108.879, 301.769 140.438, 287.157 150.880 C 283.118 153.766, 278.722 156.625, 277.388 157.233 C 274.081 158.740, 266.701 157.290, 240.058 149.900 C 228.201 146.611, 211.750 142.104, 203.500 139.884 C 195.250 137.663, 173.506 131.606, 155.179 126.423 C 136.853 121.240, 120.803 117, 119.513 117 C 116.708 117, 102.532 126.258, 100.434 129.460 C 99.620 130.702, 99.220 132.344, 99.543 133.109 C 99.867 133.874, 107.640 139.199, 116.816 144.943 C 166.046 175.757, 201.226 198.113, 203.642 200.118 C 204.389 200.738, 205 201.601, 205 202.036 C 205 203.034, 194.864 211.106, 184.794 218.127 C 180.555 221.082, 172.316 226.988, 166.485 231.250 C 160.653 235.513, 155.085 239, 154.111 239 C 152.377 239, 133.715 231.723, 117.161 224.592 C 112.575 222.616, 107.715 221, 106.362 221 C 103.161 221, 99.474 222.956, 90.952 229.173 C 80.055 237.124, 80.392 237.980, 101.434 255.786 C 105.798 259.479, 111.622 264.584, 114.376 267.132 C 120.208 272.526, 120.436 271.653, 110.109 283.500 C 103.764 290.779, 102.789 293.625, 105.750 296.230 C 107.331 297.621, 109.812 297.489, 131.430 294.867 C 156.596 291.814, 156.947 291.834, 156.985 296.346 C 157.033 302.156, 163.312 317.307, 168.827 324.920 C 179.339 339.432, 211.602 370.389, 232.919 386.418 C 266.220 411.459, 268.233 412.460, 275.882 407.792 C 283.953 402.866, 312.920 380.091, 322 371.532 C 325.025 368.681, 329.075 365.102, 331 363.578 C 332.925 362.055, 340.511 354.910, 347.857 347.701 C 360.839 334.961, 368.084 325.763, 373.220 315.500 C 387.752 286.465, 383.377 253.469, 362.171 232.172 C 353.245 223.208, 345.405 218.677, 335.739 216.896 C 331.832 216.176, 329 215.147, 329 214.448 C 329 213.332, 337.787 206.125, 348.859 198.162 C 351.411 196.325, 357.325 191.785, 362 188.071 C 366.675 184.357, 372.975 179.595, 376 177.488 C 392.466 166.018, 408.534 151.082, 415.119 141.123 C 427.107 122.996, 425.059 107.918, 410.209 104.984 C 408.169 104.581, 402.512 103.069, 397.638 101.625 C 389.256 99.142, 382.761 98.601, 374.500 99.698 M 341.267 142.966 C 338.343 145.690, 337.608 148.639, 339.010 152.025 C 342.457 160.346, 354.333 159.553, 354.333 151.003 C 354.333 148.472, 353.474 146.906, 350.681 144.347 C 346.495 140.511, 344.255 140.182, 341.267 142.966 M 316.174 159.314 C 313.103 162.584, 313.335 167.258, 316.750 170.906 C 320.946 175.388, 323.462 175.692, 327.007 172.147 C 330.915 168.239, 330.782 165.872, 326.384 161.003 C 322.231 156.407, 319.353 155.931, 316.174 159.314 M 290.655 175.829 C 288.215 178.525, 288.527 184.220, 291.250 186.701 C 296.450 191.437, 299.871 191.695, 303.228 187.605 C 305.777 184.499, 305.381 181.503, 301.896 177.535 C 298.319 173.460, 293.465 172.723, 290.655 175.829 M 207.503 231.616 C 194.376 234.789, 181.773 245.185, 176.042 257.567 C 171.813 266.704, 170.692 273.328, 171.231 286 C 171.606 294.835, 172.179 297.743, 174.844 304.338 C 176.585 308.649, 179.691 314.724, 181.745 317.838 C 185.846 324.056, 212.882 351.449, 223.072 359.711 C 226.608 362.578, 233.325 368.024, 238 371.814 C 247.407 379.440, 262.349 390.095, 267.037 392.519 C 270.013 394.058, 270.176 394.009, 276.793 389.569 C 280.495 387.086, 288.428 381.104, 294.421 376.277 C 300.415 371.450, 306.858 366.296, 308.738 364.825 C 310.618 363.353, 314.693 359.753, 317.795 356.825 C 320.896 353.896, 326.449 348.800, 330.135 345.500 C 341.169 335.621, 355.726 318.333, 359.580 310.531 C 364.651 300.265, 365.976 294.145, 365.976 281 C 365.976 263.873, 362.883 254.899, 353.623 245.166 C 343.741 234.780, 332.830 230, 319.001 230 C 301.658 230, 287.719 237.958, 274.777 255.250 C 271.998 258.962, 269.399 262, 269 262 C 268.601 262, 265.950 258.874, 263.109 255.052 C 256.561 246.246, 249.881 240.403, 241.498 236.147 C 229.719 230.168, 219.261 228.774, 207.503 231.616"
    stroke="none"
    fill="#083251"
    fill-rule="evenodd"
  />
</svg>
